<svg width="71" height="83" viewBox="0 0 71 83" fill="none" xmlns="http://www.w3.org/2000/svg">
<mask id="mask0" mask-type="alpha" maskUnits="userSpaceOnUse" x="11" y="10" width="61" height="64">
<path d="M71.2297 10.2764L11.0703 26.1452L11.0703 73.0412L71.2297 73.0412L71.2297 10.2764Z" fill="black"/>
</mask>
<g mask="url(#mask0)">
<path d="M47.9581 42.2416L50.0037 42.4948L49.2238 43.4025L50.4017 43.3563L50.1846 43.8935L50.7065 43.8051L49.7667 45.5333L51.0488 44.8338L50.1878 46.5036L51.8673 45.394L51.795 46.0149L52.6113 45.5971L52.8585 46.5878L53.3491 46.0944C53.3467 46.2271 53.3501 46.3573 53.3592 46.485C53.3931 47.0084 53.4809 47.5267 53.6213 48.0322C53.8118 47.5645 54.0484 47.1152 54.3278 46.6906C54.4166 46.5539 54.5108 46.4207 54.6064 46.2963L54.8044 46.8309L55.42 46.2757L55.998 47.8145L56.7977 45.9206L57.6322 46.9336L57.7541 46.3854C57.8956 46.5869 58.0507 46.786 58.2111 46.9888C58.7107 47.6033 59.2622 48.1765 59.8599 48.7025C59.5428 48.0167 59.2836 47.3067 59.0848 46.5793C59.064 46.4566 59.0213 46.3421 58.996 46.2202L60.0521 46.943L59.7241 45.4476L61.8781 46.3678L60.6283 44.6947L64.5258 46.2891L61.8292 43.8466L63.1225 44.1506L62.0816 43.1591L64.5922 43.4283L62.2573 42.1013L63.4174 41.9499L62.4294 41.4364L65.471 40.8717L63.3575 40.3279L64.8369 39.8564L62.8154 39.3601L63.8332 38.809L62.805 38.5819L66.1497 36.8025L62.8476 37.2626L63.6802 36.4723L62.3068 36.6328L63.5139 35.4905L61.5766 35.8772L62.3608 34.3331L61.1326 34.9921C61.1328 34.9801 61.1308 34.9682 61.1266 34.957C61.3856 34.4103 61.5894 33.8413 61.7352 33.2578C61.3215 33.6751 60.8683 34.0538 60.3815 34.3888L60.2936 34.4488L61.2138 32.4669L59.4339 33.7558C59.5349 33.2609 59.6062 32.761 59.6473 32.2588C59.2858 32.8061 58.8824 33.3266 58.4404 33.8158L58.2947 33.9757L58.6187 31.919L57.3528 33.486L57.1617 32.6887L56.576 33.3651L56.2355 31.52L55.5308 33.258L55.0469 32.551L54.7645 33.4194L54.1674 32.6503L53.9937 33.3064C53.8784 33.2042 53.757 33.094 53.6326 32.9934C53.2513 32.6881 52.84 32.4195 52.4044 32.1914C52.5639 32.5783 52.6893 32.9779 52.7794 33.3859L51.8845 32.8431L52.2653 34.0997L51.2664 33.7143L51.497 34.4417L49.3336 33.3833L50.6779 35.2838L49.7767 35.2831L50.235 35.9765L49.4705 36.0384L49.9027 36.8263L48.4185 37.1318L49.5109 37.8486L47.77 38.2922L49.2099 38.8825L46.1931 39.9795L49.502 40.2217C49.5011 40.2292 49.5024 40.2368 49.5058 40.2436L48.122 41.0596L49.3989 41.2942L47.9581 42.2416ZM50.5545 39.6827C50.5596 39.5196 50.5571 39.3396 50.5706 39.1435C50.5937 38.9332 50.6284 38.7241 50.6746 38.5172C50.7861 38.0063 50.9838 37.5158 51.2597 37.0654C51.5811 36.5272 52.0043 36.0516 52.5069 35.6639C53.0744 35.2202 53.7303 34.8956 54.4324 34.7111C55.1798 34.5099 55.962 34.4698 56.7234 34.5936C57.5191 34.7152 58.2735 35.0116 58.9288 35.4601C59.5841 35.9087 60.123 36.4975 60.5043 37.1815C60.7007 37.5143 60.852 37.8705 60.9546 38.2415C61.0198 38.4333 61.014 38.5921 61.0755 38.7621C61.1159 38.943 61.1469 39.1258 61.1683 39.31C61.2162 40.0068 61.1139 40.7074 60.8678 41.3673C60.652 41.9517 60.3258 42.4933 59.9057 42.964C59.5555 43.3635 59.1401 43.705 58.6764 43.9748C58.4892 44.0856 58.2958 44.1861 58.0971 44.2758C57.9094 44.3527 57.7323 44.4097 57.5741 44.4681C57.3285 44.5432 57.0769 44.5979 56.8221 44.6315L56.5544 44.6768L56.8124 44.6016C57.0547 44.5283 57.2925 44.4414 57.5246 44.3412L57.9964 44.0945C58.1745 43.9875 58.3465 43.8711 58.5115 43.7457C58.9087 43.4534 59.2574 43.1038 59.5452 42.7095C59.882 42.259 60.1396 41.7583 60.3073 41.2277C60.4796 40.6316 60.5329 40.0104 60.4642 39.3976C60.447 39.2414 60.4207 39.0863 60.3855 38.933C60.3506 38.7668 60.3057 38.6028 60.2509 38.4418C60.2017 38.298 60.1436 38.1573 60.0769 38.0204C60.0098 37.8696 59.9336 37.723 59.8484 37.5812C59.7587 37.432 59.661 37.2875 59.5557 37.1483C59.5365 37.4377 59.4422 37.7186 59.2815 37.9649C59.1209 38.2112 58.899 38.415 58.6365 38.5574C58.7352 38.6546 58.8082 38.7734 58.8497 38.9039C58.8911 39.0345 58.8997 39.1731 58.8748 39.3082C58.8498 39.4433 58.7921 39.5711 58.7063 39.6811C58.6205 39.791 58.5091 39.8799 58.3814 39.9405C58.2537 40.001 58.1132 40.0314 57.9717 40.0291C57.8302 40.0269 57.6916 39.9921 57.5675 39.9275C57.4433 39.863 57.3372 39.7707 57.2578 39.6581C57.1784 39.5456 57.1281 39.416 57.111 39.2802C57.0763 39.0723 57.1233 38.8585 57.2429 38.6807C56.8959 38.5768 56.5915 38.3716 56.3713 38.0931C56.151 37.8146 56.0255 37.4762 56.0117 37.1239C55.9979 36.7717 56.0966 36.4226 56.2943 36.1242C56.4921 35.8257 56.7792 35.5923 57.1168 35.4557C56.9443 35.4037 56.7688 35.3611 56.5911 35.3284C55.9476 35.2151 55.2857 35.2278 54.6444 35.3658C54.0031 35.5039 53.3954 35.7644 52.857 36.1321C52.3915 36.4583 51.9856 36.8579 51.6566 37.3138C51.3665 37.705 51.1388 38.1358 50.9813 38.5915C50.9123 38.7821 50.8563 38.9769 50.8139 39.1744C50.7755 39.3613 50.7531 39.5319 50.7277 39.685C50.7035 39.9293 50.6952 40.1747 50.7027 40.4196L50.714 40.6792C50.714 40.6792 50.6991 40.5916 50.6702 40.4206C50.6082 40.179 50.568 39.9324 50.55 39.6835L50.5545 39.6827Z" fill="white" fill-opacity="0.2"/>
<path d="M16.3285 53.5411L15.673 53.5574L16.3237 53.6231C16.4935 53.6521 16.6651 53.6712 16.8376 53.6803C17.6683 53.7322 18.5023 53.7295 19.3339 53.6723C20.1741 53.5871 21.0089 53.4533 21.8337 53.2715C22.7654 53.0628 23.6847 52.8033 24.5871 52.4941C24.9088 52.381 25.2199 52.2607 25.5173 52.1426C25.5988 52.21 25.7164 52.2983 25.8665 52.4126C25.4572 52.7525 24.9858 53.1389 24.5536 53.5368C23.8747 54.1885 23.2473 54.8886 22.6768 55.6311C22.2145 56.2369 21.9448 56.6568 21.9448 56.6568C21.9448 56.6568 22.3096 56.302 22.8969 55.8283C23.6046 55.2525 24.3578 54.7314 25.1493 54.27C25.4069 54.1182 25.6674 53.9749 25.9309 53.8401C25.8376 53.9235 25.7398 54.0077 25.6519 54.0947C24.8891 54.8557 24.2614 55.7331 23.7946 56.6907C23.701 56.8824 23.6234 57.0579 23.5624 57.2215C23.5014 57.3851 23.445 57.5209 23.4091 57.6397L23.2893 58.0072L23.4846 57.672C23.5409 57.5633 23.6275 57.4404 23.7202 57.2985C23.8248 57.1403 23.9375 56.9873 24.058 56.84C24.6761 56.0487 25.4263 55.3623 26.2771 54.8094C26.721 54.523 27.1871 54.2707 27.6712 54.0548C27.8196 53.9936 27.9634 53.9332 28.1087 53.8815L28.2076 53.9414C27.7565 54.28 27.3342 54.6531 26.9446 55.0571C26.33 55.6988 25.803 56.414 25.3769 57.1847C25.2051 57.4934 25.0825 57.7621 25.0018 57.9471L24.8792 58.2429L25.0735 57.9846C25.201 57.8277 25.3816 57.5987 25.6243 57.3502C26.7415 56.1723 28.146 55.2844 29.7064 54.7697L29.7834 54.8108L29.3189 55.1554C28.8116 55.5686 28.3334 56.0142 27.8874 56.489C27.085 57.3744 26.4227 58.3696 25.9225 59.4414C25.819 59.6573 25.7314 59.857 25.6643 60.0397C25.5972 60.2224 25.5295 60.3737 25.4935 60.5195L25.3622 60.9295L25.5683 60.5475C25.6321 60.4284 25.7248 60.2865 25.8281 60.1247C25.9314 59.9629 26.0461 59.7857 26.2077 59.6095C26.8751 58.6948 27.6822 57.883 28.6011 57.2023C29.0822 56.8478 29.5876 56.5257 30.1138 56.2382C30.5498 56.0111 30.9987 55.8086 31.4584 55.6317L31.7264 55.7532C31.5807 55.9131 31.4365 56.0818 31.3014 56.276C30.9591 56.727 30.6719 57.2145 30.4456 57.7285C30.346 57.9558 30.2607 58.1886 30.1902 58.4256C30.347 58.2364 30.5162 58.0571 30.6968 57.8889C31.0732 57.5344 31.4905 57.2231 31.9403 56.9614C32.3375 56.7337 32.7583 56.5476 33.1955 56.4061L33.2657 56.4348C33.1549 56.5798 33.0493 56.7285 32.9498 56.8851C32.6633 57.313 32.418 57.7651 32.2168 58.2356C32.0576 58.6188 31.9805 58.8798 31.9805 58.8798C31.9805 58.8798 32.1648 58.6728 32.4681 58.396C32.8314 58.066 33.2248 57.7684 33.6434 57.5071C33.9191 57.3365 34.2046 57.1812 34.4983 57.0421C34.1904 57.4356 33.911 57.849 33.6621 58.2794C33.2072 59.0793 32.8807 59.9405 32.6941 60.833C32.6313 61.1203 32.587 61.4109 32.5613 61.7032L32.5331 62.0326L32.6429 61.7164C32.7359 61.4461 32.8471 61.1817 32.9758 60.9251C33.3561 60.1565 33.8547 59.4472 34.4542 58.8216C34.9608 58.2949 35.5332 57.8313 36.158 57.4419L36.8022 57.6349C36.7529 57.7018 36.6983 57.7652 36.6542 57.8358C36.1831 58.5301 35.853 59.3038 35.6817 60.1151C35.6492 60.2677 35.627 60.4221 35.6152 60.5773C35.6005 60.7105 35.5865 60.8211 35.5839 60.9162L35.5732 61.2111L35.6663 60.9338C35.7 60.8265 35.7415 60.7215 35.7905 60.6197C35.8419 60.4847 35.904 60.3536 35.9762 60.2276C36.3293 59.5572 36.8107 58.9569 37.3946 58.4588C37.5944 58.2913 37.8053 58.1366 38.0258 57.9957C38.4314 58.1029 38.8507 58.2077 39.2783 58.3066C39.1115 58.6619 38.9707 59.0277 38.8568 59.4015C38.6189 60.2002 38.515 61.0292 38.549 61.8569C38.5578 62.1229 38.5855 62.3879 38.632 62.6499L38.6817 62.9435C38.6817 62.9435 38.6957 62.833 38.7152 62.6448C38.7434 62.3881 38.7892 62.1334 38.8521 61.8822C39.1437 60.6533 39.7729 59.5199 40.6729 58.6025L41.1164 58.6852C41.0357 58.8702 40.961 59.0632 40.8999 59.2539C40.6555 59.9947 40.5341 60.7671 40.5405 61.5421C40.538 61.7898 40.5549 62.0372 40.5911 62.282C40.6208 62.4573 40.6379 62.5581 40.6379 62.5581L40.6841 62.2798C40.7209 62.0415 40.7763 61.806 40.8496 61.5754C41.0532 60.8905 41.3687 60.2403 41.784 59.6497C41.9707 59.385 42.178 59.1344 42.404 58.9C42.9216 58.9791 43.4475 59.0524 43.9856 59.1145C43.9531 59.3365 43.9237 59.5759 43.9094 59.7947C43.8602 60.5004 43.9017 61.2082 44.0328 61.902C44.0873 62.2095 44.1621 62.5131 44.2568 62.8109C44.2646 62.5049 44.2908 62.1994 44.3352 61.8959C44.4304 61.2477 44.6065 60.6123 44.8597 60.0035C44.9602 59.7505 45.074 59.5024 45.2007 59.2604C45.7744 59.3121 46.3556 59.3534 46.9482 59.3793C46.8861 59.669 46.8391 59.9614 46.8071 60.2553C46.7353 60.9605 46.7552 61.6706 46.8663 62.369C46.9132 62.6773 46.9805 62.9821 47.0676 63.2817C47.0799 62.9738 47.1137 62.6668 47.1687 62.3628C47.3434 61.3173 47.7415 60.3161 48.3376 59.4235L49.2213 59.4316C49.2418 59.6324 49.2756 59.8315 49.3223 60.0277C49.3579 60.2029 49.4043 60.3757 49.4613 60.5453C49.5655 60.1546 49.7214 59.7781 49.9252 59.4252C50.5534 59.4134 51.1847 59.3922 51.8327 59.3591C51.8292 59.7786 51.855 60.1975 51.9097 60.613C52.0125 61.3424 52.207 62.056 52.489 62.7378C52.5793 62.9585 52.6813 63.1745 52.7946 63.3849L52.9232 63.6201C52.8574 63.3065 52.8114 62.989 52.7855 62.6695C52.7337 61.9824 52.7735 61.2908 52.9038 60.6115C52.9883 60.1502 53.1129 59.6962 53.2762 59.2544C53.6997 59.2187 54.1269 59.178 54.5625 59.1312L55.4057 62.2077L55.821 58.9812C56.3474 58.8921 56.8874 58.8277 57.4229 58.737C57.6681 59.0649 57.8942 59.4059 58.1001 59.7585C58.571 60.5547 58.9574 61.3955 59.2535 62.2684C59.2535 62.2684 59.2644 61.9194 59.2412 61.3688C59.2119 60.714 59.1359 60.0625 59.0137 59.4189C58.9595 59.0989 58.8826 58.7828 58.8041 58.485L59.5348 58.3612C59.6758 58.4771 59.8176 58.5974 59.9585 58.7404C60.3507 59.0869 60.6913 59.4843 60.9709 59.9216C61.0534 60.0689 61.1133 60.2274 61.1486 60.3919C61.165 60.4567 61.1762 60.5226 61.182 60.5892C61.2082 60.5254 61.2299 60.4599 61.2468 60.3933C61.2857 60.2089 61.2962 60.0202 61.2781 59.8335C61.1881 59.2737 61.022 58.7288 60.7842 58.2128L60.7428 58.1341L61.6423 57.9322C62.0019 58.2019 62.3417 58.4954 62.6594 58.8105C63.162 59.3443 63.6051 59.9281 63.9815 60.5524C64.1556 60.8435 64.3139 61.1432 64.4557 61.4505C64.4185 61.1099 64.3613 60.7718 64.2843 60.438C64.1007 59.6899 63.8338 58.9641 63.4881 58.2733C63.3604 58.0154 63.216 57.7693 63.0724 57.5277L64.0741 57.2678C64.8064 57.8018 65.3672 58.5253 65.693 59.3563C65.7701 59.5482 65.8317 59.7458 65.8771 59.9473C65.9024 60.0963 65.9165 60.1796 65.9165 60.1796L65.946 59.9401C65.9741 59.7274 65.9847 59.513 65.9774 59.2991C65.9554 58.6228 65.8063 57.9575 65.5375 57.3356C65.476 57.1927 65.4061 57.0558 65.3362 56.9188L66.2578 56.6545C66.319 56.6847 66.3847 56.7142 66.4571 56.756C66.887 56.9781 67.2861 57.2513 67.6452 57.5693C68.023 57.9007 68.3551 58.2778 68.6336 58.6914C68.7676 58.8842 68.8889 59.085 68.9969 59.2927C68.9864 59.0536 68.9602 58.8156 68.9182 58.5801C68.8266 58.0453 68.6678 57.5241 68.4453 57.028C68.3069 56.718 68.1454 56.4183 67.9619 56.1314L68.7058 55.8927C68.9626 56.0914 69.2 56.3122 69.4152 56.5526C69.7716 56.9492 70.0696 57.3917 70.3009 57.868C70.4093 58.0939 70.5017 58.3268 70.5776 58.5651C70.5995 58.3106 70.6046 58.0552 70.5929 57.8005C70.5684 57.2169 70.4597 56.6404 70.2701 56.0877C70.1943 55.8743 70.1074 55.6648 70.0097 55.46L71.2971 55.012C71.6829 55.2605 72.0434 55.5436 72.374 55.8576C72.6521 56.1216 72.8209 56.3185 72.8209 56.3185C72.7694 56.1095 72.7065 55.9034 72.6323 55.7012C72.5087 55.352 72.3576 55.0128 72.1803 54.6866L73.3262 54.258C73.8516 54.4369 74.3585 54.6619 74.8406 54.9304C74.6498 54.581 74.4368 54.2437 74.2027 53.9202C74.7326 53.7133 75.2571 53.5027 75.7718 53.2893C75.9419 53.3786 76.1033 53.4825 76.2539 53.5999C76.4067 53.715 76.5499 53.8415 76.6822 53.9782C76.6371 53.7887 76.5776 53.6029 76.504 53.4223C76.4575 53.3129 76.3943 53.1883 76.3259 53.0601C83.3981 50.1161 90.1723 46.5306 96.557 42.352L98.3904 41.1037L96.3054 40.3702C94.3179 39.6608 93.938 39.5402 87.7259 34.7264C86.1917 33.5344 84.5889 32.427 82.9251 31.4094C83.1794 31.1978 83.4083 30.9594 83.6077 30.6986C83.7166 30.5569 83.8146 30.4076 83.9009 30.2522C83.7467 30.3338 83.5874 30.406 83.424 30.4682C83.0797 30.5954 82.7195 30.6761 82.3535 30.7081C82.1435 30.7257 81.9325 30.7252 81.723 30.7067C81.4544 30.5538 81.2039 30.3978 80.914 30.2576C81.1373 30.0349 81.3353 29.7897 81.5045 29.5263C81.788 29.0844 81.9762 28.5923 82.0578 28.08C82.0825 27.9197 82.0941 27.7579 82.0926 27.5961C82.0733 27.4822 82.0629 27.4208 82.0629 27.4208L81.9875 27.5824C81.9196 27.7214 81.8408 27.8553 81.7519 27.983C81.4948 28.3487 81.1628 28.6597 80.7769 28.8966C80.4235 29.1142 80.0291 29.2607 79.6174 29.3274C79.4929 29.3503 79.3665 29.3611 79.24 29.3598L79.1447 29.3759L78.7899 29.2106C79.0386 28.9261 79.2538 28.6159 79.4316 28.2858C79.7232 27.7665 79.9061 27.1976 79.9698 26.612C79.9872 26.4285 79.9903 26.2441 79.9791 26.0604L79.9449 25.8588L79.8793 26.0502C79.8206 26.2188 79.7467 26.3822 79.6586 26.5385C79.4188 26.9738 79.0932 27.36 78.7003 27.6749C78.3074 27.9898 77.855 28.2272 77.369 28.3736C77.2732 28.3955 77.1762 28.4119 77.0786 28.4228L77.0287 28.4042C77.215 28.1378 77.3799 27.8582 77.522 27.5677C77.7798 27.0426 77.9512 26.4826 78.0299 25.9081C78.0671 25.6575 78.0821 25.4046 78.0745 25.152C77.9752 25.3835 77.857 25.6071 77.7209 25.8206C77.2051 26.68 76.4388 27.3747 75.5193 27.8167L74.7929 27.5519C75.1436 27.1526 75.4602 26.7265 75.7396 26.2779C76.1352 25.6388 76.4429 24.953 76.6546 24.2383C76.7372 23.9538 76.7893 23.7105 76.8216 23.5427C76.8539 23.3749 76.8701 23.2775 76.8701 23.2775L76.743 23.5199C76.6609 23.6691 76.5424 23.8785 76.3783 24.1228C75.6062 25.2641 74.5454 26.1969 73.2983 26.8312L73.0181 26.9688L72.4532 26.803L72.5944 26.6167C72.9514 26.0997 73.2162 25.5289 73.3775 24.9286C73.4272 24.7367 73.4644 24.5422 73.489 24.3461L73.5131 24.1301L73.4059 24.3241C73.319 24.4989 73.2179 24.6668 73.1034 24.8262C72.7731 25.2771 72.3661 25.6709 71.9 25.9904C71.6298 26.1689 71.3433 26.3231 71.0443 26.4509C70.5866 26.3391 70.1257 26.2368 69.6664 26.1432C69.7485 25.9941 69.8337 25.8354 69.9098 25.6782C70.1678 25.1667 70.3904 24.6394 70.5762 24.1C70.7174 23.6657 70.7893 23.374 70.7893 23.374C70.3013 24.006 69.7516 24.5914 69.1479 25.1219C68.8451 25.3867 68.527 25.6348 68.1953 25.8648C67.7881 25.8031 67.3808 25.7413 66.9712 25.6934C67.1174 25.2079 67.2271 24.7132 67.2994 24.2131C67.389 23.5543 67.4093 22.8892 67.36 22.2279C67.3117 21.695 67.2433 21.3459 67.2433 21.3459C67.2433 21.3459 67.19 21.6931 67.0562 22.1982C66.8896 22.8007 66.6585 23.3854 66.3666 23.9427C66.0843 24.4826 65.7452 24.9933 65.3548 25.4667L65.3161 25.5138L64.5792 25.4628C64.5937 25.1628 64.5962 24.8467 64.5798 24.5294C64.5574 23.9217 64.4862 23.3172 64.367 22.7213C64.2853 22.2392 64.1774 21.9328 64.1774 21.9328C64.1774 21.9328 64.1484 22.2578 64.0608 22.7326C63.9589 23.3027 63.8105 23.8645 63.6171 24.4129C63.4976 24.743 63.3609 25.0671 63.2073 25.384C62.7712 25.3722 62.3274 25.3707 61.8889 25.3729C61.0102 24.4663 60.3175 23.4058 59.8469 22.2469C59.6331 21.7286 59.5291 21.3629 59.5291 21.3629C59.5291 21.3629 59.5136 21.7398 59.5503 22.3152C59.5981 23.0253 59.7172 23.7284 59.9059 24.4147C60.0024 24.7636 60.1207 25.1042 60.246 25.4302L59.9957 25.441C58.9538 24.456 58.1274 23.2778 57.5647 21.9752C57.4171 21.6405 57.289 21.2979 57.1808 20.949C57.1908 21.3182 57.2205 21.6864 57.2696 22.0522C57.3803 22.8767 57.5846 23.6858 57.879 24.4649C58.0212 24.8442 58.1854 25.2153 58.3707 25.5765L58.1528 25.6134L57.7613 25.3415C56.295 24.2892 55.1043 22.9199 54.2826 21.3407C54.1098 21.0093 53.9867 20.7235 53.8982 20.504L53.7691 20.1832C53.7691 20.1832 53.7899 20.306 53.8263 20.5207C53.8627 20.7355 53.9161 21.0511 53.9792 21.4236C54.2011 22.3373 54.5296 23.2225 54.9583 24.0623C55.2864 24.6936 55.6681 25.297 56.0995 25.8664L55.9679 25.8887L55.8985 25.8373C55.0798 25.2248 54.335 24.5252 53.6779 23.7516C53.0079 22.9627 52.4317 22.1031 51.96 21.1885C51.7608 20.8119 51.6167 20.4847 51.5214 20.2528L51.3713 19.8905L51.4374 20.2806C51.4789 20.526 51.5391 20.881 51.6701 21.2962C51.9505 22.3217 52.3469 23.313 52.8523 24.2522C53.2228 24.9368 53.6461 25.593 54.1185 26.2155C53.9415 26.2454 53.7645 26.2754 53.5965 26.3309L53.2021 26.0145C52.8296 25.7015 52.4755 25.3686 52.1416 25.0173C51.76 24.6039 51.4042 24.1688 51.0759 23.7144C50.456 22.8419 49.9551 21.8948 49.5855 20.8963C49.5083 20.6884 49.4432 20.4966 49.3953 20.3243C49.3475 20.1521 49.2942 20.0033 49.2666 19.8952L49.1628 19.5025C49.1628 19.5025 49.1873 19.6472 49.1849 19.9091C49.1881 20.0378 49.1992 20.1862 49.2183 20.3543C49.2374 20.5224 49.2625 20.7256 49.2935 20.9638C49.4596 22.0665 49.7705 23.1426 50.2187 24.1661C50.4662 24.7213 50.7493 25.2606 51.0664 25.781C51.3012 26.147 51.5322 26.4912 51.761 26.7951C51.4639 26.8785 51.1673 26.9648 50.8712 27.054C50.6092 26.9098 50.3585 26.7474 50.1213 26.5678C49.6725 26.2335 49.2027 25.8577 48.7458 25.4481C47.9055 24.7315 47.1154 23.9616 46.3807 23.1434C45.7712 22.4666 45.4038 21.9787 45.4038 21.9787C45.4038 21.9787 45.669 22.5245 46.1292 23.3122C46.6989 24.2826 47.3326 25.2159 48.0263 26.1065C48.4081 26.5964 48.8103 27.0694 49.1975 27.5088L49.2819 27.5937L48.5834 27.8518C48.1058 27.6383 47.6457 27.3907 47.2067 27.111C46.5038 26.6641 45.8573 26.1397 45.2801 25.5481C45.0374 25.3007 44.8514 25.0842 44.7089 24.9325L44.5086 24.6869C44.5086 24.6869 44.5589 24.791 44.6362 24.9718C44.7136 25.1526 44.8473 25.4185 45.0202 25.7229C45.4446 26.479 45.9573 27.1849 46.5483 27.8267C46.7427 28.0373 46.95 28.2411 47.1603 28.4355L46.9037 28.5466C45.9846 27.9681 45.0992 27.3413 44.2515 26.6692C43.3578 25.9568 42.5046 25.1983 41.6957 24.3968C41.0333 23.7379 40.6144 23.2768 40.6144 23.2768C40.6144 23.2768 40.9333 23.809 41.4608 24.5808C42.1073 25.5304 42.8076 26.4444 43.5585 27.3186C44.1444 28.0219 44.7895 28.6882 45.3683 29.2665L44.8746 29.5214C44.4198 29.4001 43.8927 29.2369 43.3936 29.0464C42.8944 28.8558 42.1787 28.5713 41.5695 28.2822C40.4431 27.7431 39.3742 27.0997 38.3776 26.361C37.962 26.0571 37.6355 25.7833 37.4071 25.592L37.0512 25.2826C37.0512 25.2826 37.1619 25.4126 37.3464 25.6474C37.5309 25.8821 37.8142 26.2039 38.1713 26.5762C39.0465 27.5015 40.0127 28.342 41.0567 29.0859C41.63 29.4938 42.2306 29.87 42.8101 30.2047L43.232 30.4354L42.7828 30.7053C42.4972 30.6725 42.1911 30.6297 41.8791 30.5788C41.2343 30.4597 40.5997 30.2959 39.9801 30.0889C38.7994 29.6908 37.6915 29.118 36.6953 28.3908C36.5076 28.258 36.3276 28.1154 36.1561 27.9636C35.9932 27.8289 35.8522 27.713 35.7459 27.6092L35.406 27.2836L35.6845 27.6602C35.7711 27.7853 35.8878 27.9234 36.0272 28.0846C36.1743 28.2677 36.3317 28.4427 36.4988 28.6089C37.3932 29.5382 38.4322 30.3264 39.579 30.9459C40.1122 31.2353 40.6652 31.4896 41.2345 31.707L40.7201 32.0601L40.1131 31.7842C39.6375 31.5672 39.0941 31.2805 38.5304 30.9566C37.9667 30.6328 37.3835 30.2491 36.8133 29.8317C35.7692 29.0661 34.8066 28.2022 33.9395 27.2524C33.5748 26.8633 33.2969 26.5181 33.1064 26.2753L32.8007 25.8762C32.8007 25.8762 32.8879 26.0328 33.0292 26.2884C33.1706 26.544 33.3938 26.9525 33.6842 27.3993C34.396 28.5126 35.2227 29.5524 36.152 30.5028C36.6606 31.0253 37.2019 31.5198 37.7304 31.9668C38.259 32.4138 38.7764 32.7951 39.2358 33.1096L39.0539 33.2486L38.8855 33.1915C38.2021 32.96 37.4282 32.6357 36.6046 32.2657C35.781 31.8957 34.9341 31.4439 34.1041 30.9533C32.5728 30.0455 31.1424 28.9886 29.835 27.7987C29.5651 27.5559 29.3209 27.3267 29.1174 27.1177C28.914 26.9087 28.7255 26.7332 28.5589 26.5765L28.1023 26.0858L28.4923 26.6239C28.6157 26.8014 28.7753 27.0269 28.9553 27.2353C29.1353 27.4438 29.3469 27.7281 29.5939 28.0289C30.7585 29.397 32.0649 30.6456 33.493 31.7557C34.2819 32.3615 35.0913 32.9233 35.904 33.4214C36.5046 33.7705 37.0872 34.1228 37.6246 34.4015L37.3471 34.6378L37.1084 34.5791C36.2951 34.37 35.494 34.1204 34.7082 33.8313C33.8035 33.4916 32.9184 33.1057 32.0568 32.6752C30.4333 31.8505 28.9138 30.8494 27.5271 29.691C27.2391 29.4513 26.982 29.2288 26.7642 29.0177C26.5464 28.8066 26.345 28.6378 26.2057 28.4765L25.7271 27.994L26.145 28.5319C26.2768 28.7035 26.4463 28.9047 26.6444 29.1372C26.8425 29.3696 27.0677 29.6246 27.3239 29.8968C28.5897 31.2448 30.0119 32.4471 31.5629 33.4803C32.3979 34.0322 33.2631 34.5403 34.155 35.0026C34.8101 35.3425 35.4299 35.6118 36.0075 35.8521L35.8506 36.0004C35.4492 35.9737 35.0064 35.9225 34.528 35.8547C33.9482 35.7569 33.3747 35.6282 32.8101 35.4693C31.7348 35.1623 30.7027 34.7316 29.7357 34.1865C29.3342 33.9659 29.0136 33.7542 28.7918 33.6024L28.4433 33.3639L28.7372 33.6658C28.9963 33.9341 29.2701 34.1887 29.5573 34.4286C30.4341 35.1756 31.4002 35.8186 32.4355 36.3444C32.6551 36.456 32.8823 36.5573 33.1043 36.6549C32.623 36.5696 32.1365 36.4536 31.6478 36.3245C30.7175 36.0664 29.8052 35.7526 28.9163 35.3849C28.0341 35.0016 27.1798 34.5619 26.3591 34.0685C25.6331 33.6296 24.9381 33.1449 24.2786 32.6174L23.8624 32.2821L23.5005 31.9646C23.2751 31.7638 23.0768 31.5855 22.9435 31.4322L22.4558 30.9512L23.0248 31.5267C23.1573 31.7026 23.3306 31.8987 23.5325 32.126L23.8557 32.4906C23.974 32.6103 24.0991 32.7425 24.234 32.8774C24.8345 33.4911 25.4776 34.0646 26.1587 34.5939C26.9497 35.2015 27.7816 35.758 28.649 36.2598C29.5301 36.7525 30.4419 37.1929 31.3793 37.5783C32.1494 37.8799 32.9356 38.1426 33.7348 38.3652L33.558 38.562L33.3667 38.5628C32.5318 38.5601 31.6983 38.5086 30.8709 38.4084C29.9157 38.2811 28.9712 38.0916 28.0438 37.8411C27.1121 37.5829 26.2011 37.261 25.3177 36.8781C24.5403 36.5379 23.789 36.1453 23.0693 35.7033L22.6158 35.4239L22.219 35.1485C21.9708 34.9786 21.7497 34.8312 21.5861 34.692L21.0477 34.2692L21.5308 34.751C21.6837 34.91 21.8813 35.0839 22.1112 35.2839C22.222 35.3869 22.3426 35.4927 22.4738 35.6058C22.605 35.7188 22.7491 35.8252 22.8946 35.9403C23.5624 36.4698 24.2682 36.9529 25.0069 37.3861C25.8695 37.8972 26.7695 38.3475 27.7001 38.7335C28.2022 38.9415 28.7376 39.1259 29.2602 39.2899C28.4985 39.1754 27.7075 39.0253 26.9226 38.8291C25.9726 38.5907 25.039 38.2972 24.1267 37.95C23.3255 37.6377 22.5457 37.2774 21.7918 36.871L21.3148 36.6182L20.8945 36.3692C20.6296 36.2112 20.3783 36.0779 20.2161 35.9476L19.6382 35.5675L20.1804 36.0122C20.3448 36.1557 20.5597 36.3222 20.8011 36.5068L21.1925 36.8057L21.6421 37.1173C22.3546 37.6179 23.0993 38.0746 23.8718 38.4846C24.7632 38.9566 25.6839 39.3758 26.6287 39.74C27.5849 40.0965 28.562 40.3991 29.5553 40.6466C30.1189 40.7766 30.6606 40.8878 31.1714 40.9816C30.6179 41.0213 30.0009 41.0446 29.3492 41.0558C28.4672 41.0509 27.5865 41.0029 26.7105 40.912C25.0574 40.7315 23.4318 40.3764 21.8626 39.8529C21.5371 39.7502 21.2434 39.6421 20.9851 39.5506C20.7268 39.4591 20.4875 39.3689 20.3146 39.2854L19.7408 39.0399L20.2622 39.3619C20.4335 39.4637 20.6494 39.5804 20.8947 39.7057C21.14 39.831 21.4094 39.9883 21.7279 40.1327C23.2575 40.8697 24.8667 41.4438 26.5277 41.8447C27.1887 41.9988 27.8536 42.1207 28.5109 42.2257C27.6496 42.322 26.7315 42.4144 25.8174 42.4475C24.1848 42.5388 22.5513 42.3579 20.9883 41.9127C20.468 41.757 19.9647 41.5539 19.485 41.3061C19.3076 41.2234 19.1809 41.1367 19.0881 41.0848L18.9485 41.0047L19.0774 41.1046C19.1581 41.1676 19.2773 41.2647 19.441 41.3767C19.8865 41.6899 20.3623 41.9611 20.862 42.1866C22.4092 42.8551 24.0664 43.2607 25.7616 43.3857C26.9708 43.4966 28.1788 43.5174 29.2447 43.5262C28.8543 43.6465 28.4351 43.7626 27.9872 43.8745C26.3909 44.2418 24.7462 44.3543 23.1184 44.2076C22.3989 44.1423 21.6862 44.0249 20.9861 43.8564L20.5434 43.751L20.1499 43.6328C19.9037 43.5573 19.6869 43.4903 19.5117 43.4207L18.9635 43.216L19.4775 43.4942C19.6382 43.5887 19.8458 43.6843 20.0836 43.7928L20.4588 43.9682L20.8892 44.1388C21.579 44.4067 22.2885 44.6256 23.0122 44.7937C23.853 44.9811 24.7077 45.1076 25.5693 45.1722C26.2192 45.213 26.8715 45.2169 27.5227 45.1841C26.9973 45.4173 26.447 45.6413 25.8734 45.8376C25.1893 46.0627 24.4935 46.2513 23.7889 46.4026C23.1661 46.5303 22.5372 46.6263 21.9048 46.6901C21.628 46.737 21.371 46.7354 21.1441 46.7468C20.9173 46.7582 20.7146 46.7745 20.5506 46.7707L20.0048 46.7729L20.5163 46.8441C20.6796 46.8706 20.8791 46.8909 21.1066 46.911C21.3341 46.9311 21.5819 46.9612 21.8782 46.9742C22.5281 47.0102 23.18 47.0127 23.8309 46.9816C24.582 46.9434 25.3307 46.8633 26.0732 46.7416C25.8128 46.8308 25.5525 46.92 25.2861 47.0012C23.8726 47.4388 22.4229 47.7537 20.9544 47.9422C20.3554 48.0437 19.8412 48.0676 19.4851 48.0874L18.9263 48.1234L19.4848 48.1686C19.8401 48.1986 20.354 48.2288 20.9671 48.2376C22.4841 48.263 24.002 48.1568 25.5025 47.9204L25.793 47.8712L25.5916 47.9504C24.4907 48.3405 23.3499 48.6123 22.1902 48.7609C21.8044 48.8155 21.4162 48.8512 21.0271 48.8677L20.5644 48.892L21.0042 48.9528C21.2861 48.9907 21.6904 49.0349 22.1802 49.0602C22.8523 49.0952 23.5264 49.0894 24.1987 49.043C23.8724 49.1839 23.5402 49.3168 23.2033 49.4505C22.0455 49.8974 20.864 50.2827 19.664 50.6045C18.6721 50.8672 17.9996 51.0037 17.9996 51.0037C17.9996 51.0037 18.6823 50.9827 19.713 50.8938C20.9778 50.7796 22.2358 50.5966 23.481 50.3458L23.6625 50.3151L23.1554 50.5182C21.8422 51.0295 20.4873 51.4309 19.1056 51.7181C18.533 51.8376 18.0527 51.8964 17.7169 51.9533L17.1904 52.0425L17.7241 52.0513C18.0651 52.0521 18.5542 52.0459 19.119 52.0179C20.565 51.94 22.0028 51.7418 23.4164 51.4254C23.7205 51.3739 24.0179 51.2829 24.3122 51.2015L24.085 51.3211C23.2727 51.7193 22.4376 52.0715 21.584 52.376C20.0544 52.9589 18.4539 53.3437 16.8245 53.5202C16.6595 53.5353 16.494 53.5422 16.3285 53.5411ZM67.3455 52.3538L67.9747 51.7963C69.1516 50.692 70.1629 49.4338 70.9785 48.0593C71.3574 47.4311 71.6948 46.7806 71.9886 46.1117C72.1453 45.7966 72.2371 45.4564 72.362 45.1467C72.487 44.837 72.5961 44.5164 72.6674 44.1932C72.7387 43.8701 72.8182 43.568 72.8865 43.2544C72.9675 42.9636 73.0298 42.6685 73.073 42.3706C73.1375 41.7871 73.236 41.2383 73.2603 40.7202C73.2846 40.2021 73.2861 39.7149 73.286 39.2731C73.2858 38.8312 73.21 38.4112 73.1757 38.0428L73.1206 37.5246C73.0938 37.3668 73.0686 37.2178 73.0463 37.0863C72.9996 36.8102 72.9368 36.5773 72.8951 36.386L72.7706 35.8164C72.7706 35.8164 72.773 36.0234 72.7733 36.4111C72.7742 36.6094 72.7794 36.861 72.7831 37.1309C72.8061 37.2667 72.7905 37.4227 72.7847 37.5815C72.7789 37.7403 72.7565 37.9109 72.7446 38.0888C72.7125 38.4504 72.6901 38.8419 72.6449 39.2644C72.5998 39.6869 72.4955 40.1464 72.4101 40.6343C72.3246 41.1222 72.1522 41.6203 72.0137 42.1532C71.9106 42.5089 71.7711 42.8707 71.6286 43.242C72.794 39.1569 72.2591 34.8107 70.1392 31.1401C71.1211 31.4247 72.2252 31.7968 73.3223 32.2106C74.7191 32.7523 76.086 33.362 77.4179 34.0374C78.5192 34.5858 79.2323 34.9926 79.2323 34.9926C79.2323 34.9926 78.5867 34.4887 77.5812 33.7888C76.5756 33.0889 75.1874 32.1968 73.7392 31.3916C73.2652 31.1292 72.7837 30.8771 72.3135 30.6366C73.1141 30.8707 73.8799 31.1197 74.6078 31.3932C76.0131 31.8902 77.2739 32.4431 78.3912 32.9483L79.9205 33.7082L81.2217 34.3896C81.9907 34.823 82.6194 35.1448 83.0306 35.3953L83.6676 35.7383L83.1514 35.2261C82.81 34.8916 82.3042 34.4137 81.6256 33.8252L80.481 32.8829C80.1235 32.5917 79.72 32.3039 79.2946 31.9972C81.7355 33.3064 84.0532 34.8176 86.222 36.5141C90.4295 39.7737 92.0911 40.9847 93.4173 41.6754C91.9145 42.6153 89.5158 44.054 86.486 45.6809L86.9042 45.3936C87.9859 44.6964 88.8967 44.0372 89.6407 43.4963C90.3848 42.9555 90.9577 42.5068 91.3502 42.2059L91.9369 41.7278C91.9369 41.7278 90.9987 42.2248 89.3623 43.0655C88.9542 43.2744 88.5022 43.4998 87.9979 43.7475C87.4937 43.9952 86.9697 44.2643 86.3912 44.5426C85.8128 44.821 85.2056 45.1222 84.5507 45.418C83.8959 45.7137 83.231 46.0608 82.5096 46.3769C81.0802 47.0337 79.5238 47.7122 77.8758 48.4286C77.0462 48.7675 76.1976 49.1322 75.3226 49.4788C74.4476 49.8253 73.5726 50.1719 72.6424 50.5233L69.8496 51.5374L67.3455 52.3538ZM49.506 51.7681L49.465 50.3682L48.4844 51.1114L49.177 48.4196L47.3795 50.2931C47.3639 50.2011 47.4027 50.0998 47.4182 49.998C47.4965 49.5423 47.6192 49.0943 47.7845 48.66C47.3502 48.9147 46.9437 49.2117 46.5714 49.5463L46.5229 49.5905L46.5407 49.4478C46.5982 49.0386 46.6856 48.6335 46.8023 48.2357C46.4169 48.4591 46.0489 48.7098 45.7015 48.9857L46.5985 46.895L44.7556 48.3073L44.7792 48.2537C44.9694 47.8468 45.1881 47.4527 45.4338 47.0742C44.9956 47.2121 44.5666 47.3766 44.1493 47.5668L44.2286 47.346C44.359 47.01 44.5126 46.6828 44.6883 46.3663C44.3118 46.4316 43.9403 46.5231 43.5769 46.6402C43.4816 46.6564 43.3907 46.6988 43.2984 46.7325C43.4237 46.5625 43.5663 46.385 43.7143 46.2112C44.0723 45.7819 44.455 45.3724 44.8604 44.9846C44.2881 45.105 43.7231 45.2579 43.1686 45.4424C43.0354 45.483 42.903 45.528 42.7713 45.5773L42.7668 45.551C42.9203 45.2934 43.0432 45.0199 43.133 44.7361C42.8532 44.7657 42.5713 44.7651 42.2924 44.7341L42.1299 44.7121L42.9588 43.6248L42.0953 43.6809L42.1992 43.5776C42.5482 43.2442 42.9178 42.9317 43.3058 42.6417C42.8008 42.6402 42.2958 42.6685 41.7936 42.7265L41.7301 42.7373L42.8347 41.955L41.2566 41.8436L43.4382 40.6941L41.7253 40.3935L42.5471 39.8981L41.7657 39.5571L44.1794 39.3647L42.3953 38.6163C42.747 38.5073 43.0892 38.3709 43.4187 38.2085C43.1056 38.0655 42.8055 37.8976 42.5214 37.7067L44.2098 37.3666L43.4493 36.8732L44.6604 36.8845L43.8203 36.1972L45.5785 36.2962L44.7538 35.5341L46.3529 35.7142L45.0957 34.7413L46.6114 35.0076L45.9578 34.1805L47.4045 34.2601L46.8643 33.4137L48.3743 34.0597L47.6359 32.7871L48.655 32.9887L48.5067 32.3059C48.6004 32.3352 48.6986 32.3636 48.7983 32.4008C49.1279 32.521 49.4463 32.6677 49.7502 32.8393C49.7107 32.5166 49.6472 32.1974 49.5604 31.884L50.7212 32.4809L50.3937 31.3461L51.6386 31.8882L51.7267 31.0302L52.5967 31.8116L52.6958 30.7984L53.2618 31.6043L53.3224 30.3631L53.9853 31.3555L54.4909 30.4267L55.0037 31.5798L55.5181 30.2618L55.9874 31.2689L56.5602 29.9095L56.8745 30.6904L57.4754 29.7454L57.915 30.6043L58.3745 29.9268L58.759 30.7635L59.3937 29.8804L59.8755 32.0082L60.6681 30.1831L60.9331 31.527L61.7628 30.1961L62.1525 31.2844L63.0067 30.3462L62.9749 31.5644L64.1961 30.5054L63.8832 31.6901L64.9832 31.1837C64.9178 31.321 64.8485 31.4635 64.7846 31.6096C64.4909 32.2655 64.2448 32.94 64.048 33.628C64.5199 33.1041 65.0275 32.6114 65.5676 32.1533C65.792 31.962 66.0231 31.7831 66.239 31.6248L66.1403 32.0338L66.8395 31.8071L66.1847 33.0407L67.7154 32.1548L66.3208 33.7887L68.4839 32.9714L67.3296 34.1499L69.1004 33.8274L68.1705 34.8145L69.6154 34.7457C69.6236 34.7939 69.631 34.8377 69.6384 34.8815L67.0639 36.2193L69.7161 36.1399L68.2564 36.838L70.1265 37.157L69.9016 37.2627C69.3262 37.5315 68.7155 37.7567 68.7155 37.7567C68.7155 37.7567 69.2674 37.9833 69.8746 38.1781L69.0055 38.5597L69.7064 39.0317L67.6992 39.2814L69.5787 39.9866L68.7268 40.194L69.5555 40.8697L68.7536 41.0416L69.2819 41.5699L67.6639 41.6365L69.4024 42.6947L68.1996 42.7045L68.9359 43.441L67.8208 43.445L68.572 44.2421L66.9528 43.7228L67.5833 44.6891L66.5634 44.4831L67.5686 45.7872L66.4594 45.5783L67.0789 46.6727L66.0366 46.3623L66.6961 47.4995L65.1928 46.893L65.748 47.7728L64.526 47.1457L65.3704 48.6033L64.5882 48.2849L64.765 48.805L63.5099 47.8994L64.0191 49.2244L62.9402 48.5324L63.3405 49.8488L62.7037 49.4517L62.7303 50.6285L61.4398 49.1833L61.7798 51.1908C61.6397 51.0251 61.483 50.8443 61.3187 50.6737C60.9554 50.2891 60.571 49.9237 60.167 49.5792C60.278 50.0756 60.3629 50.5774 60.4216 51.0826C60.4438 51.2141 60.4646 51.3369 60.4627 51.4634L59.0405 49.8196L59.2152 51.7604L58.5397 50.9144L58.3718 51.9077L57.3096 49.4951L57.02 52.1682L56.2299 50.2596L55.6497 52.8151L54.772 50.3892L54.3191 52.5941C54.2842 52.5244 54.2534 52.4529 54.2268 52.3798C54.0749 52.0123 53.9545 51.6331 53.8667 51.2459C53.6492 51.5761 53.4564 51.9207 53.2896 52.277L52.782 49.9688L51.9079 52.4434C51.8555 52.2789 51.8146 52.1111 51.7855 51.9411C51.6987 51.4841 51.6606 51.0192 51.6719 50.5536C51.3454 50.9379 51.0623 51.3547 50.8274 51.7968L50.746 51.9503C50.72 51.7969 50.6933 51.6391 50.7021 51.4708C50.6748 50.9669 50.6875 50.4613 50.7401 49.9584C50.3807 50.3589 50.055 50.7865 49.7662 51.237C49.6711 51.447 49.5806 51.6021 49.494 51.7521L49.506 51.7681ZM27.6435 50.8312C28.7418 48.8548 29.947 46.935 31.2538 45.0797C31.1284 45.3038 31.0166 45.5257 30.8987 45.7395L30.2664 47.0775C30.0723 47.4756 29.9283 47.8381 29.7912 48.1589L29.4614 48.9678C29.2891 49.4117 29.1932 49.6444 29.1932 49.6444L29.6403 49.0592C29.9257 48.6772 30.3335 48.1077 30.8731 47.4076L31.7688 46.2459L32.8435 44.9006C33.2283 44.4161 33.6501 43.9299 34.0993 43.412L34.7859 42.6148L35.4489 41.8984L35.3061 42.13C33.7088 44.7451 32.3932 47.4793 32.3932 47.4793C32.3932 47.4793 34.13 44.9713 36.1012 42.6626C37.1226 41.4436 38.2004 40.2826 39.0006 39.4663C39.0169 42.6208 40.0029 45.6886 41.833 48.2792C41.5822 47.9835 41.3374 47.6959 41.1289 47.402C40.8272 46.9436 40.5132 46.5234 40.2545 46.0983C39.9958 45.6732 39.802 45.2732 39.5817 44.8821C39.3614 44.4911 39.2484 44.127 39.0997 43.8005C39.0246 43.6328 38.9563 43.4776 38.894 43.3303C38.8317 43.1831 38.7929 43.0364 38.7472 42.9043C38.6603 42.6395 38.5847 42.4133 38.521 42.2302C38.3928 41.8597 38.3269 41.6634 38.3269 41.6634C38.3269 41.6634 38.3611 41.8651 38.3901 42.2569C38.4228 42.4498 38.4416 42.6991 38.4741 42.9731C38.4978 43.1134 38.5238 43.2668 38.5483 43.4114C38.5728 43.5561 38.6047 43.7445 38.6714 43.9181C38.7595 44.2729 38.8513 44.6767 38.9664 45.1081C39.0814 45.5395 39.2827 45.9563 39.4671 46.4661C39.6515 46.9759 39.9298 47.4338 40.1875 47.9627C40.3221 48.2313 40.4766 48.49 40.65 48.7366C40.8162 49.0015 40.9915 49.2649 41.166 49.5509C41.3405 49.837 41.5757 50.0677 41.7683 50.3507C41.976 50.6247 42.1983 50.8881 42.4342 51.1397C42.933 51.675 43.4659 52.1796 44.0299 52.6504C45.2546 53.6773 46.6235 54.532 48.0968 55.1899L49.2799 55.6704L49.3207 55.6635L49.1106 55.663C47.2636 55.6737 45.4195 55.5611 43.5914 55.3263C42.7163 55.231 41.8845 55.0337 41.0571 54.9168C40.2297 54.8 39.4661 54.5641 38.7166 54.4115C37.9672 54.2589 37.2475 54.0065 36.5942 53.788L35.6057 53.464L35.1132 53.3129L34.6677 53.1359C34.0833 52.9102 33.5336 52.6967 33.0338 52.4748L32.3106 52.1464L31.6652 51.8363C30.8009 51.4264 29.9637 50.9659 29.1581 50.4574C29.1581 50.4574 29.3344 50.644 29.7114 50.9679C30.2441 51.4315 30.8024 51.8667 31.3842 52.2717L31.9824 52.6889L32.6569 53.1157C33.1201 53.425 33.6529 53.7045 34.2106 54.0204L34.6423 54.2538L35.1005 54.4783L36.0569 54.9431L36.3853 55.0904C33.27 54.0873 30.3257 52.6528 27.6435 50.8312Z" fill="white" fill-opacity="0.2"/>
<path d="M33.3274 51.1762C33.9685 51.4328 34.7281 51.7009 35.5498 51.9766C36.3715 52.2522 37.2346 52.5524 38.1145 52.8137C38.9944 53.075 39.8697 53.3641 40.7014 53.5885C41.533 53.8128 42.314 54.0412 42.9901 54.2018C43.6662 54.3623 44.2214 54.5253 44.6195 54.6157L45.2404 54.781L44.5971 54.7592C44.1867 54.7341 43.6002 54.6891 42.8982 54.5961C42.1961 54.5031 41.393 54.3641 40.5301 54.2036C39.6673 54.0431 38.7624 53.7725 37.8644 53.5143C36.9663 53.2561 36.1048 52.9106 35.2902 52.5661C34.4755 52.2216 33.7698 51.8587 33.1373 51.542C32.5048 51.2253 32.0272 50.9139 31.6786 50.7024L31.1505 50.341L31.7524 50.5592C32.1261 50.7259 32.6727 50.9489 33.3274 51.1762Z" fill="white" fill-opacity="0.2"/>
<path d="M74.3991 48.6839C75.2107 48.321 76.1313 47.8855 77.1557 47.4009C78.1801 46.9163 79.2384 46.4395 80.3037 45.9209C81.369 45.4023 82.4697 44.9274 83.4517 44.4409C84.4337 43.9545 85.3989 43.534 86.1962 43.142C86.9935 42.7499 87.6786 42.44 88.151 42.2248L88.8975 41.8909L88.224 42.3522C87.805 42.635 87.1634 43.0368 86.4075 43.5075C85.6516 43.9782 84.7322 44.4765 83.7599 45.02C82.7875 45.5634 81.7071 46.0755 80.6335 46.6C79.5598 47.1245 78.4623 47.5629 77.4245 47.9957C76.3867 48.4284 75.4065 48.7883 74.5635 49.0754C73.7204 49.3624 73.0023 49.5878 72.5051 49.7396L71.7129 49.9685L72.4496 49.6047C72.922 49.3894 73.6147 49.0692 74.3991 48.6839Z" fill="white" fill-opacity="0.2"/>
<path d="M40.7674 52.7928L39.3563 52.4546L37.7755 51.9694L36.2321 51.3741L34.9261 50.7747L34.0265 50.2868L33.693 50.0818L34.0829 50.151L35.0831 50.3784L36.4744 50.765L38.0438 51.2657L39.5835 51.839L40.91 52.3944L41.8294 52.8338L42.1781 53.0183L41.7829 52.9725L40.7674 52.7928Z" fill="white" fill-opacity="0.2"/>
</g>
</svg>
